G04*
G04 #@! TF.GenerationSoftware,Altium Limited,Altium Designer,23.5.1 (21)*
G04*
G04 Layer_Color=16711935*
%FSLAX43Y43*%
%MOMM*%
G71*
G04*
G04 #@! TF.SameCoordinates,8FC2429F-322A-4D25-A3D7-46987ED2785F*
G04*
G04*
G04 #@! TF.FilePolarity,Positive*
G04*
G01*
G75*
%ADD10C,0.200*%
G36*
X16891Y19457D02*
X16900Y19456D01*
X16909Y19455D01*
X16920Y19453D01*
X16932Y19451D01*
X16944Y19448D01*
X16957Y19446D01*
X16970Y19442D01*
X16984Y19437D01*
X16998Y19431D01*
X17011Y19424D01*
X17025Y19417D01*
X17037Y19408D01*
X17038Y19408D01*
X17040Y19406D01*
X17043Y19403D01*
X17047Y19399D01*
X17053Y19394D01*
X17059Y19388D01*
X17065Y19381D01*
X17073Y19373D01*
X17081Y19364D01*
X17088Y19354D01*
X17096Y19342D01*
X17103Y19330D01*
X17111Y19317D01*
X17117Y19302D01*
X17123Y19287D01*
X17129Y19271D01*
X17045Y19252D01*
Y19252D01*
X17044Y19254D01*
X17043Y19258D01*
X17041Y19263D01*
X17039Y19269D01*
X17036Y19275D01*
X17029Y19290D01*
X17020Y19307D01*
X17008Y19324D01*
X16995Y19340D01*
X16988Y19347D01*
X16980Y19354D01*
X16979Y19354D01*
X16978Y19355D01*
X16976Y19356D01*
X16973Y19358D01*
X16968Y19361D01*
X16964Y19364D01*
X16958Y19367D01*
X16951Y19369D01*
X16943Y19372D01*
X16936Y19375D01*
X16918Y19381D01*
X16897Y19384D01*
X16886Y19385D01*
X16867D01*
X16862Y19385D01*
X16855Y19384D01*
X16848Y19383D01*
X16839Y19383D01*
X16831Y19381D01*
X16811Y19376D01*
X16790Y19370D01*
X16780Y19366D01*
X16769Y19361D01*
X16760Y19356D01*
X16750Y19349D01*
X16749Y19349D01*
X16748Y19348D01*
X16745Y19346D01*
X16742Y19343D01*
X16738Y19340D01*
X16733Y19335D01*
X16728Y19330D01*
X16723Y19324D01*
X16717Y19317D01*
X16711Y19310D01*
X16700Y19295D01*
X16690Y19276D01*
X16681Y19254D01*
Y19254D01*
X16680Y19252D01*
X16679Y19248D01*
X16678Y19244D01*
X16676Y19238D01*
X16674Y19232D01*
X16673Y19225D01*
X16671Y19217D01*
X16669Y19208D01*
X16667Y19198D01*
X16664Y19177D01*
X16662Y19155D01*
X16661Y19132D01*
Y19131D01*
Y19128D01*
Y19124D01*
X16662Y19118D01*
Y19111D01*
X16663Y19102D01*
X16663Y19093D01*
X16664Y19083D01*
X16665Y19072D01*
X16667Y19061D01*
X16671Y19037D01*
X16677Y19012D01*
X16685Y18989D01*
Y18988D01*
X16686Y18986D01*
X16688Y18983D01*
X16689Y18979D01*
X16692Y18973D01*
X16695Y18968D01*
X16703Y18955D01*
X16713Y18940D01*
X16726Y18925D01*
X16741Y18910D01*
X16749Y18904D01*
X16758Y18898D01*
X16759D01*
X16760Y18897D01*
X16763Y18895D01*
X16767Y18893D01*
X16772Y18891D01*
X16778Y18888D01*
X16784Y18886D01*
X16791Y18883D01*
X16807Y18878D01*
X16826Y18873D01*
X16846Y18869D01*
X16856Y18869D01*
X16867Y18868D01*
X16874D01*
X16879Y18869D01*
X16885Y18869D01*
X16892Y18870D01*
X16900Y18872D01*
X16909Y18873D01*
X16928Y18878D01*
X16938Y18881D01*
X16948Y18885D01*
X16959Y18890D01*
X16968Y18896D01*
X16978Y18902D01*
X16988Y18909D01*
X16989Y18910D01*
X16990Y18911D01*
X16993Y18913D01*
X16996Y18917D01*
X17000Y18921D01*
X17004Y18926D01*
X17009Y18933D01*
X17015Y18940D01*
X17020Y18948D01*
X17026Y18957D01*
X17031Y18967D01*
X17037Y18978D01*
X17042Y18989D01*
X17047Y19003D01*
X17052Y19016D01*
X17055Y19031D01*
X17140Y19010D01*
Y19008D01*
X17138Y19005D01*
X17137Y19000D01*
X17134Y18992D01*
X17131Y18984D01*
X17127Y18973D01*
X17123Y18962D01*
X17117Y18951D01*
X17111Y18937D01*
X17104Y18925D01*
X17097Y18911D01*
X17088Y18898D01*
X17078Y18885D01*
X17068Y18873D01*
X17056Y18861D01*
X17043Y18850D01*
X17043Y18849D01*
X17040Y18848D01*
X17036Y18845D01*
X17031Y18842D01*
X17025Y18838D01*
X17016Y18833D01*
X17007Y18828D01*
X16996Y18823D01*
X16984Y18818D01*
X16972Y18813D01*
X16958Y18808D01*
X16943Y18804D01*
X16927Y18801D01*
X16910Y18798D01*
X16893Y18797D01*
X16874Y18796D01*
X16864D01*
X16857Y18797D01*
X16848Y18797D01*
X16838Y18798D01*
X16827Y18799D01*
X16814Y18802D01*
X16801Y18804D01*
X16787Y18806D01*
X16774Y18810D01*
X16760Y18813D01*
X16745Y18818D01*
X16731Y18824D01*
X16718Y18830D01*
X16706Y18838D01*
X16705Y18838D01*
X16703Y18840D01*
X16699Y18842D01*
X16695Y18845D01*
X16690Y18850D01*
X16683Y18855D01*
X16676Y18861D01*
X16669Y18869D01*
X16661Y18877D01*
X16653Y18886D01*
X16645Y18896D01*
X16637Y18907D01*
X16629Y18919D01*
X16621Y18931D01*
X16614Y18945D01*
X16607Y18960D01*
X16606Y18960D01*
X16606Y18963D01*
X16604Y18968D01*
X16602Y18973D01*
X16600Y18981D01*
X16597Y18989D01*
X16594Y19000D01*
X16590Y19011D01*
X16588Y19023D01*
X16584Y19037D01*
X16581Y19050D01*
X16579Y19066D01*
X16575Y19098D01*
X16575Y19114D01*
X16574Y19131D01*
Y19132D01*
Y19135D01*
Y19141D01*
X16575Y19148D01*
X16575Y19157D01*
X16576Y19167D01*
X16577Y19178D01*
X16579Y19191D01*
X16581Y19204D01*
X16583Y19218D01*
X16590Y19247D01*
X16595Y19262D01*
X16600Y19277D01*
X16605Y19292D01*
X16612Y19306D01*
X16613Y19306D01*
X16614Y19309D01*
X16616Y19313D01*
X16619Y19318D01*
X16623Y19324D01*
X16628Y19331D01*
X16633Y19339D01*
X16640Y19348D01*
X16647Y19356D01*
X16655Y19366D01*
X16664Y19375D01*
X16674Y19385D01*
X16684Y19394D01*
X16695Y19403D01*
X16708Y19411D01*
X16720Y19419D01*
X16721Y19419D01*
X16724Y19420D01*
X16727Y19422D01*
X16733Y19425D01*
X16739Y19428D01*
X16747Y19431D01*
X16756Y19435D01*
X16766Y19438D01*
X16777Y19442D01*
X16789Y19445D01*
X16802Y19448D01*
X16816Y19451D01*
X16844Y19456D01*
X16860Y19457D01*
X16875Y19458D01*
X16885D01*
X16891Y19457D01*
D02*
G37*
G36*
X17439Y19448D02*
X17447Y19447D01*
X17456Y19446D01*
X17466Y19444D01*
X17477Y19442D01*
X17488Y19439D01*
X17500Y19436D01*
X17513Y19432D01*
X17525Y19427D01*
X17537Y19421D01*
X17549Y19414D01*
X17560Y19406D01*
X17570Y19397D01*
X17571Y19396D01*
X17572Y19395D01*
X17575Y19392D01*
X17579Y19388D01*
X17583Y19383D01*
X17588Y19377D01*
X17592Y19370D01*
X17597Y19362D01*
X17602Y19354D01*
X17607Y19344D01*
X17612Y19333D01*
X17616Y19322D01*
X17620Y19310D01*
X17622Y19297D01*
X17624Y19284D01*
X17624Y19270D01*
Y19270D01*
Y19269D01*
Y19267D01*
Y19264D01*
X17624Y19256D01*
X17622Y19247D01*
X17620Y19235D01*
X17617Y19222D01*
X17614Y19209D01*
X17608Y19195D01*
Y19194D01*
X17608Y19193D01*
X17607Y19191D01*
X17606Y19188D01*
X17601Y19181D01*
X17596Y19171D01*
X17588Y19159D01*
X17579Y19146D01*
X17569Y19132D01*
X17556Y19117D01*
X17555Y19116D01*
X17554Y19115D01*
X17552Y19113D01*
X17549Y19109D01*
X17545Y19105D01*
X17540Y19100D01*
X17534Y19094D01*
X17527Y19088D01*
X17519Y19080D01*
X17510Y19072D01*
X17500Y19062D01*
X17489Y19053D01*
X17477Y19041D01*
X17464Y19030D01*
X17450Y19018D01*
X17434Y19005D01*
X17434Y19004D01*
X17432Y19002D01*
X17427Y18999D01*
X17423Y18995D01*
X17417Y18990D01*
X17411Y18985D01*
X17396Y18972D01*
X17381Y18959D01*
X17366Y18945D01*
X17359Y18939D01*
X17353Y18933D01*
X17348Y18928D01*
X17344Y18924D01*
X17343Y18923D01*
X17340Y18920D01*
X17337Y18916D01*
X17332Y18910D01*
X17326Y18904D01*
X17321Y18897D01*
X17310Y18882D01*
X17625D01*
Y18806D01*
X17201D01*
Y18808D01*
Y18811D01*
Y18817D01*
X17202Y18824D01*
X17203Y18832D01*
X17205Y18841D01*
X17207Y18851D01*
X17210Y18860D01*
Y18861D01*
X17211Y18863D01*
X17212Y18865D01*
X17213Y18868D01*
X17215Y18872D01*
X17217Y18876D01*
X17223Y18888D01*
X17230Y18901D01*
X17239Y18915D01*
X17249Y18931D01*
X17262Y18946D01*
X17262Y18946D01*
X17263Y18948D01*
X17265Y18950D01*
X17269Y18953D01*
X17272Y18957D01*
X17277Y18962D01*
X17282Y18967D01*
X17288Y18973D01*
X17295Y18980D01*
X17303Y18987D01*
X17311Y18996D01*
X17321Y19004D01*
X17330Y19013D01*
X17341Y19022D01*
X17353Y19032D01*
X17365Y19042D01*
X17366Y19043D01*
X17370Y19046D01*
X17375Y19050D01*
X17382Y19057D01*
X17390Y19064D01*
X17400Y19072D01*
X17411Y19081D01*
X17422Y19091D01*
X17445Y19113D01*
X17468Y19136D01*
X17479Y19147D01*
X17490Y19158D01*
X17499Y19168D01*
X17507Y19178D01*
X17507Y19179D01*
X17508Y19180D01*
X17510Y19183D01*
X17512Y19186D01*
X17516Y19191D01*
X17518Y19196D01*
X17525Y19209D01*
X17532Y19223D01*
X17538Y19239D01*
X17543Y19256D01*
X17543Y19264D01*
X17544Y19272D01*
Y19273D01*
Y19274D01*
Y19277D01*
X17543Y19280D01*
Y19284D01*
X17542Y19289D01*
X17540Y19299D01*
X17536Y19312D01*
X17529Y19325D01*
X17526Y19332D01*
X17521Y19338D01*
X17516Y19344D01*
X17510Y19351D01*
X17509Y19351D01*
X17509Y19352D01*
X17507Y19354D01*
X17504Y19356D01*
X17500Y19358D01*
X17496Y19361D01*
X17486Y19367D01*
X17473Y19373D01*
X17459Y19378D01*
X17441Y19382D01*
X17432Y19383D01*
X17416D01*
X17412Y19383D01*
X17407D01*
X17402Y19381D01*
X17389Y19379D01*
X17375Y19375D01*
X17359Y19369D01*
X17352Y19365D01*
X17344Y19360D01*
X17337Y19355D01*
X17330Y19349D01*
X17330Y19348D01*
X17329Y19347D01*
X17328Y19345D01*
X17325Y19342D01*
X17323Y19339D01*
X17320Y19335D01*
X17316Y19330D01*
X17314Y19324D01*
X17310Y19318D01*
X17307Y19311D01*
X17302Y19295D01*
X17298Y19277D01*
X17297Y19266D01*
X17296Y19255D01*
X17216Y19263D01*
Y19265D01*
X17217Y19268D01*
X17217Y19272D01*
X17218Y19278D01*
X17219Y19286D01*
X17222Y19295D01*
X17224Y19304D01*
X17227Y19315D01*
X17231Y19325D01*
X17235Y19337D01*
X17240Y19348D01*
X17246Y19359D01*
X17253Y19371D01*
X17260Y19381D01*
X17269Y19392D01*
X17278Y19401D01*
X17279Y19401D01*
X17281Y19403D01*
X17284Y19405D01*
X17288Y19408D01*
X17294Y19412D01*
X17301Y19416D01*
X17308Y19420D01*
X17317Y19425D01*
X17327Y19429D01*
X17338Y19433D01*
X17350Y19437D01*
X17363Y19441D01*
X17377Y19444D01*
X17391Y19446D01*
X17407Y19448D01*
X17424Y19448D01*
X17433D01*
X17439Y19448D01*
D02*
G37*
G36*
X16891Y16536D02*
X16900Y16535D01*
X16909Y16534D01*
X16920Y16532D01*
X16932Y16530D01*
X16944Y16528D01*
X16957Y16525D01*
X16970Y16521D01*
X16984Y16516D01*
X16998Y16510D01*
X17011Y16503D01*
X17025Y16496D01*
X17037Y16487D01*
X17038Y16487D01*
X17040Y16485D01*
X17043Y16482D01*
X17047Y16478D01*
X17053Y16473D01*
X17059Y16467D01*
X17065Y16460D01*
X17073Y16452D01*
X17081Y16443D01*
X17088Y16433D01*
X17096Y16421D01*
X17103Y16409D01*
X17111Y16396D01*
X17117Y16381D01*
X17123Y16366D01*
X17129Y16350D01*
X17045Y16331D01*
Y16331D01*
X17044Y16333D01*
X17043Y16337D01*
X17041Y16342D01*
X17039Y16348D01*
X17036Y16354D01*
X17029Y16369D01*
X17020Y16386D01*
X17008Y16403D01*
X16995Y16419D01*
X16988Y16426D01*
X16980Y16433D01*
X16979Y16433D01*
X16978Y16434D01*
X16976Y16435D01*
X16973Y16437D01*
X16968Y16440D01*
X16964Y16443D01*
X16958Y16446D01*
X16951Y16448D01*
X16943Y16451D01*
X16936Y16454D01*
X16918Y16460D01*
X16897Y16463D01*
X16886Y16464D01*
X16867D01*
X16862Y16464D01*
X16855Y16463D01*
X16848Y16462D01*
X16839Y16462D01*
X16831Y16460D01*
X16811Y16455D01*
X16790Y16449D01*
X16780Y16445D01*
X16769Y16440D01*
X16760Y16435D01*
X16750Y16428D01*
X16749Y16428D01*
X16748Y16427D01*
X16745Y16425D01*
X16742Y16422D01*
X16738Y16419D01*
X16733Y16414D01*
X16728Y16409D01*
X16723Y16403D01*
X16717Y16396D01*
X16711Y16389D01*
X16700Y16374D01*
X16690Y16355D01*
X16681Y16333D01*
Y16333D01*
X16680Y16331D01*
X16679Y16327D01*
X16678Y16323D01*
X16676Y16317D01*
X16674Y16311D01*
X16673Y16304D01*
X16671Y16296D01*
X16669Y16287D01*
X16667Y16277D01*
X16664Y16256D01*
X16662Y16234D01*
X16661Y16211D01*
Y16210D01*
Y16207D01*
Y16203D01*
X16662Y16197D01*
Y16190D01*
X16663Y16181D01*
X16663Y16172D01*
X16664Y16162D01*
X16665Y16151D01*
X16667Y16140D01*
X16671Y16116D01*
X16677Y16091D01*
X16685Y16068D01*
Y16067D01*
X16686Y16065D01*
X16688Y16062D01*
X16689Y16058D01*
X16692Y16052D01*
X16695Y16047D01*
X16703Y16034D01*
X16713Y16019D01*
X16726Y16004D01*
X16741Y15989D01*
X16749Y15983D01*
X16758Y15977D01*
X16759D01*
X16760Y15976D01*
X16763Y15974D01*
X16767Y15972D01*
X16772Y15970D01*
X16778Y15967D01*
X16784Y15965D01*
X16791Y15962D01*
X16807Y15957D01*
X16826Y15952D01*
X16846Y15948D01*
X16856Y15948D01*
X16867Y15947D01*
X16874D01*
X16879Y15948D01*
X16885Y15948D01*
X16892Y15949D01*
X16900Y15951D01*
X16909Y15952D01*
X16928Y15957D01*
X16938Y15960D01*
X16948Y15964D01*
X16959Y15969D01*
X16968Y15975D01*
X16978Y15981D01*
X16988Y15988D01*
X16989Y15989D01*
X16990Y15990D01*
X16993Y15992D01*
X16996Y15996D01*
X17000Y16000D01*
X17004Y16005D01*
X17009Y16012D01*
X17015Y16019D01*
X17020Y16027D01*
X17026Y16036D01*
X17031Y16046D01*
X17037Y16057D01*
X17042Y16068D01*
X17047Y16082D01*
X17052Y16095D01*
X17055Y16110D01*
X17140Y16089D01*
Y16087D01*
X17138Y16084D01*
X17137Y16079D01*
X17134Y16071D01*
X17131Y16063D01*
X17127Y16052D01*
X17123Y16041D01*
X17117Y16030D01*
X17111Y16016D01*
X17104Y16004D01*
X17097Y15990D01*
X17088Y15977D01*
X17078Y15964D01*
X17068Y15952D01*
X17056Y15940D01*
X17043Y15929D01*
X17043Y15928D01*
X17040Y15927D01*
X17036Y15924D01*
X17031Y15921D01*
X17025Y15917D01*
X17016Y15912D01*
X17007Y15907D01*
X16996Y15902D01*
X16984Y15897D01*
X16972Y15892D01*
X16958Y15887D01*
X16943Y15883D01*
X16927Y15880D01*
X16910Y15877D01*
X16893Y15876D01*
X16874Y15875D01*
X16864D01*
X16857Y15876D01*
X16848Y15876D01*
X16838Y15877D01*
X16827Y15878D01*
X16814Y15881D01*
X16801Y15883D01*
X16787Y15885D01*
X16774Y15889D01*
X16760Y15892D01*
X16745Y15897D01*
X16731Y15903D01*
X16718Y15909D01*
X16706Y15917D01*
X16705Y15917D01*
X16703Y15919D01*
X16699Y15921D01*
X16695Y15924D01*
X16690Y15929D01*
X16683Y15934D01*
X16676Y15940D01*
X16669Y15948D01*
X16661Y15956D01*
X16653Y15965D01*
X16645Y15975D01*
X16637Y15986D01*
X16629Y15998D01*
X16621Y16010D01*
X16614Y16024D01*
X16607Y16039D01*
X16606Y16039D01*
X16606Y16042D01*
X16604Y16047D01*
X16602Y16052D01*
X16600Y16060D01*
X16597Y16068D01*
X16594Y16079D01*
X16590Y16090D01*
X16588Y16102D01*
X16584Y16116D01*
X16581Y16129D01*
X16579Y16145D01*
X16575Y16177D01*
X16575Y16193D01*
X16574Y16210D01*
Y16211D01*
Y16214D01*
Y16220D01*
X16575Y16227D01*
X16575Y16236D01*
X16576Y16246D01*
X16577Y16257D01*
X16579Y16270D01*
X16581Y16283D01*
X16583Y16297D01*
X16590Y16326D01*
X16595Y16341D01*
X16600Y16356D01*
X16605Y16371D01*
X16612Y16385D01*
X16613Y16385D01*
X16614Y16388D01*
X16616Y16392D01*
X16619Y16397D01*
X16623Y16403D01*
X16628Y16410D01*
X16633Y16418D01*
X16640Y16427D01*
X16647Y16435D01*
X16655Y16445D01*
X16664Y16454D01*
X16674Y16464D01*
X16684Y16473D01*
X16695Y16482D01*
X16708Y16490D01*
X16720Y16498D01*
X16721Y16498D01*
X16724Y16499D01*
X16727Y16501D01*
X16733Y16504D01*
X16739Y16507D01*
X16747Y16510D01*
X16756Y16514D01*
X16766Y16517D01*
X16777Y16521D01*
X16789Y16524D01*
X16802Y16528D01*
X16816Y16530D01*
X16844Y16535D01*
X16860Y16536D01*
X16875Y16537D01*
X16885D01*
X16891Y16536D01*
D02*
G37*
G36*
X17508Y15885D02*
X17430D01*
Y16385D01*
X17428Y16384D01*
X17425Y16380D01*
X17418Y16376D01*
X17409Y16369D01*
X17399Y16360D01*
X17386Y16351D01*
X17371Y16342D01*
X17355Y16331D01*
X17354D01*
X17353Y16330D01*
X17350Y16328D01*
X17347Y16327D01*
X17343Y16324D01*
X17338Y16322D01*
X17327Y16316D01*
X17314Y16310D01*
X17301Y16303D01*
X17286Y16297D01*
X17272Y16291D01*
Y16367D01*
X17273Y16367D01*
X17275Y16368D01*
X17278Y16370D01*
X17283Y16372D01*
X17289Y16375D01*
X17296Y16379D01*
X17303Y16383D01*
X17311Y16387D01*
X17329Y16399D01*
X17348Y16412D01*
X17368Y16426D01*
X17387Y16442D01*
X17388Y16442D01*
X17389Y16444D01*
X17392Y16446D01*
X17396Y16449D01*
X17399Y16453D01*
X17404Y16457D01*
X17414Y16469D01*
X17426Y16482D01*
X17438Y16496D01*
X17448Y16512D01*
X17457Y16528D01*
X17508D01*
Y15885D01*
D02*
G37*
D10*
X14645Y17767D02*
Y19825D01*
Y17767D02*
X18503D01*
Y19825D01*
X14645D02*
X18503D01*
X14645Y14846D02*
Y16904D01*
Y14846D02*
X18503D01*
Y16904D01*
X14645D02*
X18503D01*
M02*
